<?xml version="1.0" standalone="no"?>
<!DOCTYPE svg PUBLIC "-//W3C//DTD SVG 20010904//EN"
 "http://www.w3.org/TR/2001/REC-SVG-20010904/DTD/svg10.dtd">
<svg version="1.0" xmlns="http://www.w3.org/2000/svg"
 width="100.000000pt" height="100.000000pt" viewBox="0 0 100.000000 100.000000"
 preserveAspectRatio="xMidYMid meet">
<metadata>
Created by potrace 1.11, written by Peter Selinger 2001-2013
</metadata>
<g transform="translate(0.000000,100.000000) scale(0.100000,-0.100000)"
fill="#000000" stroke="none">
<path d="M70 660 c0 -109 2 -130 15 -130 12 0 15 19 15 115 l0 115 128 0 c70
0 143 -5 162 -10 66 -18 123 -63 155 -121 29 -53 35 -107 23 -208 -2 -13 2
-26 9 -28 17 -6 36 100 28 155 -10 69 -42 128 -93 172 -65 58 -117 70 -294 70
l-148 0 0 -130z"/>
<path d="M860 775 c0 -10 11 -15 35 -15 35 0 35 0 35 -45 l0 -45 -125 0 -125
0 0 -65 0 -65 101 0 100 0 -3 -42 -3 -43 -97 -3 -98 -3 0 -94 0 -95 -45 0 -44
0 -3 57 c-2 42 -7 59 -18 61 -12 2 -15 -9 -14 -60 1 -35 2 -69 3 -75 1 -9 23
-13 76 -13 l75 0 0 95 0 95 100 0 100 0 0 75 0 74 -97 3 -98 3 -3 32 -3 32
128 3 128 3 3 73 3 72 -56 0 c-42 0 -55 -3 -55 -15z"/>
<path d="M200 510 l0 -160 77 0 c101 0 153 24 182 84 26 53 27 98 1 151 -30
62 -78 85 -179 85 l-81 0 0 -160z m191 107 c22 -15 39 -38 49 -65 13 -37 13
-47 0 -84 -22 -60 -56 -82 -140 -86 l-70 -4 0 131 0 131 64 0 c49 0 71 -5 97
-23z"/>
<path d="M72 358 l3 -123 150 0 c167 0 224 13 285 63 49 41 30 61 -19 21 -58
-46 -116 -59 -263 -59 l-128 0 0 110 c0 92 -2 110 -15 110 -13 0 -15 -18 -13
-122z"/>
</g>
</svg>
